<svg xmlns="http://www.w3.org/2000/svg" width="56" height="38.101" viewBox="0 0 56 38.101">
  <g id="Group_3857" data-name="Group 3857" transform="translate(0 0)">
    <g id="Group_186" data-name="Group 186" transform="translate(56 38.101) rotate(180)">
      <g id="Group_93" data-name="Group 93" transform="translate(56 38.101) rotate(180)" opacity="0.996">
        <path id="Path_20" data-name="Path 20" d="M56,0,38.463,31.789a16.627,16.627,0,0,1-2.082,2.937,10.179,10.179,0,0,1-3.35,2.366A12.017,12.017,0,0,1,27.884,38.1a11.88,11.88,0,0,1-8.665-3.556A9.717,9.717,0,0,1,17.382,32L0,0H12.08L25.97,25.013a10.853,10.853,0,0,0,.893,1.448,1.181,1.181,0,0,0,.969.362,1.291,1.291,0,0,0,1.048-.388,10.1,10.1,0,0,0,.893-1.422L43.765,0Z" transform="translate(0 0)" fill="#fff"/>
      </g>
      <path id="Path_22" data-name="Path 22" d="M0,0,4.484,8.255a2.511,2.511,0,0,0,.474.658,3.061,3.061,0,0,0,2.236.918,3.1,3.1,0,0,0,1.327-.26,2.625,2.625,0,0,0,.865-.611A4.273,4.273,0,0,0,9.923,8.2L14.448,0Z" transform="translate(35.144 38.101) rotate(180)" fill="#fff"/>
    </g>
  </g>
</svg>
