<svg xmlns="http://www.w3.org/2000/svg" width="1264.224" height="269.242" viewBox="0 0 1264.224 269.242">
  <g id="Group_3898" data-name="Group 3898" transform="translate(-322.504 -329.976)">
    <g id="Group_3899" data-name="Group 3899">
      <path id="Path_23815" data-name="Path 23815" d="M161.2,0l39.728-138.736H153.712l-17.68,84.864-21.008-84.864H83.408L62.4-53.872,44.512-138.736H-2.5L37.232,0h44.1L99.216-78.624,117.1,0Zm36.816-69.264c0,42.64,33.072,71.76,75.92,71.76s75.92-29.12,75.92-71.76-33.072-71.76-75.92-71.76S198.016-111.9,198.016-69.264Zm109.2,0c0,19.344-13.1,34.736-33.28,34.736s-33.28-15.392-33.28-34.736S253.76-104,273.936-104,307.216-88.608,307.216-69.264ZM489.008,0,463.84-49.088C474.864-54.5,488.8-67.184,488.8-91.1c0-26-17.472-47.632-49.92-47.632H364.832V0h42.016V-44.512h15.184L441.168,0ZM446.16-91.728c0,7.7-6.656,12.272-13.728,12.272H406.848v-24.336h25.584C439.5-103.792,446.16-99.216,446.16-91.728ZM637.936,0l-54.7-74.256,52.416-64.48H584.272l-36.4,52v-52H505.856V0h42.016V-38.48l7.7-10.4L586.768,0Zm147.68,0L734.448-138.736H681.616L630.448,0H676l5.408-17.888h53.248L740.064,0ZM723.84-52.832H692.224l15.808-48.88ZM852.384,0V-102.128h37.024v-36.608H773.136v36.608h37.232V0ZM946.4,0V-138.736H904.384V0Zm14.976-69.264c0,42.64,33.072,71.76,75.92,71.76s75.92-29.12,75.92-71.76-33.072-71.76-75.92-71.76S961.376-111.9,961.376-69.264Zm109.2,0c0,19.344-13.1,34.736-33.28,34.736s-33.28-15.392-33.28-34.736S1017.12-104,1037.3-104,1070.576-88.608,1070.576-69.264ZM1261.728,0V-138.736h-42.016v69.888l-48.256-69.888h-43.264V0h42.016V-74.464L1221.376,0Z" transform="translate(325 471)" fill="#fff"/>
      <path id="Path_23816" data-name="Path 23816" d="M133.744-7.7l-8.736-4.784L122.1-120.016a159.021,159.021,0,0,0-12.48-10.608c-15.184-7.488-33.9-15.184-51.584-15.184-2.7,0-5.616.624-7.9.624A208.662,208.662,0,0,0,9.984-99.84L6.24-16.016.208,4.784,14.768-6.032l11.44-52.624H98.384l3.952,56.992,12.688,8.528h4.16ZM98.384-70.72H27.04v-30.368l5.824-17.472,8.736-7.072c2.912-.208,6.448-.832,9.152-.832H54.5a96.712,96.712,0,0,1,23.3,7.072l16.64,9.152ZM281.008-11.648l-6.032-3.744-3.744-69.056c-6.24-4.576-13.52-8.736-20.592-13.312-2.08-.624-5.2-.624-7.9-.624h-2.08L220.064-82.368c-8.528-6.24-16.848-12.48-26.208-17.888a11.417,11.417,0,0,0-4.992.832L166.4-84.656a50.882,50.882,0,0,0-16.64-16.64L138.112-89.648l-.624,4.992,7.28,1.04L143.936-.208l19.552,1.872,1.664-79.04c4.992-3.744,11.648-6.656,17.056-6.656,4.576,0,10.192,2.288,14.352,6.656L198.224-.832,218.816,1.04l1.248-76.96c4.368-3.744,10.192-6.448,15.392-6.448a20.694,20.694,0,0,1,13.1,4.992l4.784,71.552,10.816,7.7H267.9Zm92.768-29.744v-4.784a43.4,43.4,0,0,0-7.9-13.312c-6.656-3.536-13.728-6.24-21.008-6.24-1.248,0-3.328.624-5.2.624-6.032,2.288-11.648,5.616-17.472,8.528a21.714,21.714,0,0,1-5.824.832c-3.12,0-7.072-1.248-9.36-4.16L302.64-75.92c.624-1.664.832-4.368,2.288-6.448,2.288-4.16,5.616-5.2,9.36-5.2A43.892,43.892,0,0,1,326.56-85.28L348.4-73.84a55.6,55.6,0,0,0,16.016-11.648L347.36-96.928a65.4,65.4,0,0,0-19.552-3.328H324.9a63.388,63.388,0,0,0-17.264,4.16L288.5-75.92c-.832,4.16-1.872,9.152-1.872,13.1,0,2.912.832,5.824,1.04,8.528,3.536,4.992,7.7,8.528,12.064,12.272,2.7,0,5.616.624,7.9.624,8.528,0,17.264-1.872,23.088-7.9,2.08,0,4.16-.624,5.824-.624A20.417,20.417,0,0,1,351.312-44.1a35.965,35.965,0,0,1,3.744,14.56,24.249,24.249,0,0,1-1.456,7.9l-7.28,9.152h-2.912a77.983,77.983,0,0,1-14.352-1.456,50.067,50.067,0,0,0-9.776-3.744L302.432-28.5A47.58,47.58,0,0,0,283.92-16.848,173.939,173.939,0,0,0,317.2.208h19.344A218.394,218.394,0,0,0,368.16-19.76,47.182,47.182,0,0,0,373.776-41.392Zm51.792-43.056v-12.48H411.632l-4.368-39.728h-2.912l-6.24,17.68L383.76-96.928c-2.5.624-4.576,1.456-7.28,1.664L374.4-84.448h12.9v70.512a39.19,39.19,0,0,0,4.368,6.448c4.784,3.536,9.152,5.824,15.6,6.656l10.816-13.1-7.28-4.992v-65.52Zm88.4,18.72v-5.824C508.144-89.44,491.5-99.424,473.616-99.424H470.7a51.108,51.108,0,0,0-21.632,10.4c-13.1,13.1-18.1,28.288-18.1,46.8a9.437,9.437,0,0,1,.416,1.664C434.3-14.768,457.808.208,481.52.208c3.536,0,7.7-.208,11.232-.416A41.658,41.658,0,0,0,508.144-19.76c-4.576,2.912-10.4,3.744-15.808,3.744a127.071,127.071,0,0,1-16.224-1.456l-9.36-4.16c-9.776-7.9-15.808-17.68-16.64-30.576l62.816.832A81.846,81.846,0,0,0,513.968-65.728Zm-20.384,6.656-43.472-1.04c0-10.608.832-21.424,11.232-27.248h2.912c6.656,0,12.9,2.08,18.512,4.16A39.588,39.588,0,0,1,493.584-59.072ZM583.856-91.52l-9.568-9.152c-3.536,0-6.656.832-9.36,1.248L550.784-86.112c-4.576-6.448-10.4-12.064-17.472-15.184l-12.48,9.776-2.08,6.864,10.192,5.2,1.04,64.688,4.16,8.944c4.16,2.912,8.528,5.616,12.9,6.864l14.976-15.808c-.624,0-1.456.208-2.288.208l-.832-.208a23.286,23.286,0,0,1-6.864-4.992v-59.7a5.6,5.6,0,0,1,4.368-4.16c3.536,1.248,8.32,6.864,12.064,6.864,4.992-.832,8.736-3.536,12.9-6.864A20.813,20.813,0,0,0,583.856-91.52Zm94.432,41.6c0-15.808-6.032-32.448-16.848-44.1a227.847,227.847,0,0,0-61.568-49.92,81.437,81.437,0,0,0-15.392,18.1c14.56,7.28,28.288,17.264,40.768,27.664a96.285,96.285,0,0,0-28.288,16.64c-9.36,12.688-13.312,25.584-13.312,40.976,3.744,18.72,14.144,31.824,32.032,39.52A52.111,52.111,0,0,0,627.12.208c22.256,0,44.3-19.968,50.752-41.6A60,60,0,0,0,678.288-49.92Zm-16.224,9.36c0,10.192-3.328,21.008-11.232,27.872-2.912.208-5.824.832-8.32.832-16.016,0-29.12-12.688-35.984-27.248,0-2.288-.416-6.032-.416-9.568,0-18.1,4.992-38.9,24.96-44.72,13.936,10.192,23.5,23.92,29.536,40.56A61.771,61.771,0,0,1,662.064-40.56ZM778.128-12.48l-7.7-2.912V-89.024c-7.9-9.152-24.128-11.648-36.608-11.648H729.04c-5.824,1.664-11.648,3.328-17.056,6.656l-13.728,10.4A96.569,96.569,0,0,0,687.44-66.768a204.325,204.325,0,0,0-3.952,29.744c1.872,15.184,9.36,26,21.632,33.9,2.7.832,5.2,1.456,7.7,2.288h17.472l16.848-10.816C751.5-5.824,756.5-1.04,762.528,1.872,768.768-1.04,774.176-6.656,778.128-12.48ZM748.8-20.592c-2.08,1.664-3.744,3.744-6.448,5.2a38.6,38.6,0,0,1-9.36,1.664,37.39,37.39,0,0,1-10.816-2.288c-12.9-7.488-18.72-22.464-18.72-37.648,0-11.232,3.536-23.712,7.28-31.824a44.7,44.7,0,0,1,11.648-1.456,51.677,51.677,0,0,1,7.9.416c6.24,1.872,12.064,4.16,17.68,8.32Zm177.632,8.944L920.4-15.392l-3.744-69.056c-6.24-4.576-13.52-8.736-20.592-13.312-2.08-.624-5.2-.624-7.9-.624h-2.08L865.488-82.368c-8.528-6.24-16.848-12.48-26.208-17.888a11.417,11.417,0,0,0-4.992.832L811.824-84.656a50.883,50.883,0,0,0-16.64-16.64L783.536-89.648l-.624,4.992,7.28,1.04L789.36-.208l19.552,1.872,1.664-79.04c4.992-3.744,11.648-6.656,17.056-6.656,4.576,0,10.192,2.288,14.352,6.656L843.648-.832,864.24,1.04l1.248-76.96c4.368-3.744,10.192-6.448,15.392-6.448a20.694,20.694,0,0,1,13.1,4.992l4.784,71.552,10.816,7.7h3.744Z" transform="translate(497 588)" fill="#fff"/>
    </g>
    <path id="Amsterdam_-_Outline" data-name="Amsterdam - Outline" d="M-4.261,11.218,3.756-16.426,7.517-100.64l.379-.575a218.824,218.824,0,0,1,18.648-24.434A207.4,207.4,0,0,1,48.52-147.1l.7-.586h.911a31.4,31.4,0,0,0,3.34-.276,39.705,39.705,0,0,1,4.564-.348,75.658,75.658,0,0,1,13.844,1.362A109.715,109.715,0,0,1,85.534-143.4a191.043,191.043,0,0,1,25.188,10.535l.217.107.192.147a160.325,160.325,0,0,1,12.682,10.779l.754.712.028,1.037,2.873,106.1,10.4,5.7L120.22,9.364h-5.958L99.927-.271,96.051-56.156H28.223L17.012-4.584ZM115.786,4.364h2.362L129.618-7.105l-7.07-3.872-.039-1.435-2.884-106.493c-3.574-3.327-7.56-6.7-11.332-9.583-12.991-6.4-32.246-14.819-50.261-14.819a36,36,0,0,0-3.99.315c-1.03.119-2.017.233-2.969.283a202.468,202.468,0,0,0-20.781,20.371,213.624,213.624,0,0,0-17.841,23.3L8.724-15.606,4.677-1.65l7.847-5.83L24.193-61.156h76.524l4.029,58.1Zm646.724.275-1.069-.516C756.085,1.537,751.2-2.54,746.563-8.309L731.021,1.668H712.41l-.385-.128c-1.4-.468-2.81-.868-4.3-1.293-1.075-.306-2.187-.623-3.34-.978l-.329-.1-.289-.186a57.2,57.2,0,0,1-8.673-6.8,46.781,46.781,0,0,1-6.784-8.163,45.331,45.331,0,0,1-4.734-9.621,52.805,52.805,0,0,1-2.568-11.119l-.029-.23.015-.232a207.62,207.62,0,0,1,4-30.108l.063-.3.131-.272A100.689,100.689,0,0,1,696.274-85.14l.2-.266,14.092-10.676.1-.063c5.7-3.508,11.79-5.248,17.679-6.931l.337-.1h5.134a82.451,82.451,0,0,1,20.666,2.477C762.4-98.577,768.4-95.2,772.324-90.658l.608.7v72.835l9.043,3.422L780.2-11.076A53.084,53.084,0,0,1,772.908-2.4a35.47,35.47,0,0,1-9.323,6.537ZM747.741-15.008l1.395,1.86c4.253,5.671,8.648,9.68,13.4,12.222A37.609,37.609,0,0,0,774.189-11.3l-6.257-2.368v-74.4c-3.275-3.439-8.226-6.063-14.734-7.8a77.412,77.412,0,0,0-19.373-2.307H729.39c-5.657,1.617-11.007,3.177-15.995,6.223L700.034-81.826a92.128,92.128,0,0,0-10.211,15.875A202.741,202.741,0,0,0,686-37.1a47.677,47.677,0,0,0,2.291,9.836,40.325,40.325,0,0,0,4.21,8.559,41.78,41.78,0,0,0,6.06,7.288,51.976,51.976,0,0,0,7.627,6.01c.989.3,1.963.577,2.908.846,1.412.4,2.752.784,4.123,1.23h16.337ZM811.355,4.409,786.837,2.062l.833-83.513-7.544-1.078,1.035-8.281,13.648-13.648,1.68,1.03a53.675,53.675,0,0,1,16.069,15.3l20.526-13.494.187-.083a13.868,13.868,0,0,1,6.007-1.048h.67l.58.335a267.047,267.047,0,0,1,24.206,16.4l.706.518,19.779-15.384h2.938c2.9,0,6.191,0,8.622.729l.341.1.3.193c2.38,1.54,4.821,3.055,7.181,4.521,4.8,2.979,9.33,5.793,13.531,8.874l.954.7.064,1.181,3.673,67.755,7.561,4.693-16,16.508h-5.6L896.353-4.474l-.079-1.183L891.563-76.11a18.09,18.09,0,0,0-10.683-3.758c-4,0-8.86,1.952-12.911,5.144L866.7,3.774,841.2,1.456l-1.691-77.775a19.962,19.962,0,0,0-5.564-3.741,15.708,15.708,0,0,0-6.31-1.472c-4.177,0-9.793,2.116-14.583,5.453ZM910.383-.628h1.887L922.478-11.16l-4.5-2.8-.071-1.3-3.679-67.866c-3.788-2.708-7.912-5.269-12.258-7.968-2.273-1.411-4.621-2.869-6.934-4.361a33.93,33.93,0,0,0-6.872-.433h-1.222l-21.4,16.647-1.522-1.114-2.232-1.635a265.021,265.021,0,0,0-23.169-15.767,8.139,8.139,0,0,0-3.134.539L811.03-81.142l-1.344-2.218A48.249,48.249,0,0,0,795.528-98.1l-9.617,9.617-.213,1.7,7.016,1-.831,83.3,14.587,1.4L808.1-78.646l.974-.73a40.176,40.176,0,0,1,8.936-5.05,26.381,26.381,0,0,1,9.62-2.106c5.6,0,11.8,2.848,16.162,7.432l.668.7L846.1-3.12l15.685,1.426,1.223-75.392.854-.732a31.939,31.939,0,0,1,8.021-5.025,23.122,23.122,0,0,1,9-2.024,21.7,21.7,0,0,1,7.58,1.4,24.108,24.108,0,0,1,7.134,4.175l.813.685,4.776,71.43ZM165.931,4.409,141.413,2.062l.833-83.513L134.7-82.529l1.035-8.281,13.648-13.648,1.68,1.03a53.675,53.675,0,0,1,16.069,15.3l20.526-13.494.187-.083a13.868,13.868,0,0,1,6.007-1.048h.67l.58.335a267.049,267.049,0,0,1,24.206,16.4l.706.518L239.8-100.884h2.938c2.9,0,6.191,0,8.622.729l.341.1.3.193c2.38,1.54,4.821,3.055,7.181,4.521,4.8,2.979,9.33,5.793,13.531,8.874l.954.7.064,1.181L277.4-16.829l7.561,4.693-16,16.508h-5.6L250.929-4.474l-.079-1.183L246.139-76.11a18.09,18.09,0,0,0-10.683-3.758c-4,0-8.86,1.952-12.911,5.144l-1.273,78.5-25.5-2.318-1.691-77.775a19.962,19.962,0,0,0-5.564-3.741,15.708,15.708,0,0,0-6.31-1.472c-4.177,0-9.793,2.116-14.583,5.453ZM264.959-.628h1.887L277.054-11.16l-4.5-2.8L268.8-83.122c-3.788-2.708-7.912-5.269-12.258-7.968-2.273-1.411-4.621-2.869-6.934-4.361a33.93,33.93,0,0,0-6.872-.433h-1.222l-21.4,16.647-1.522-1.114-2.232-1.635a265.018,265.018,0,0,0-23.169-15.767,8.139,8.139,0,0,0-3.134.539L165.606-81.142l-1.344-2.218A48.249,48.249,0,0,0,150.1-98.1l-9.617,9.617-.213,1.7,7.016,1-.831,83.3,14.587,1.4,1.633-77.564.974-.73a40.176,40.176,0,0,1,8.936-5.05,26.381,26.381,0,0,1,9.62-2.106c5.6,0,11.8,2.848,16.162,7.432l.668.7L200.675-3.12,216.36-1.694l1.223-75.392.854-.732a31.939,31.939,0,0,1,8.021-5.025,23.121,23.121,0,0,1,9-2.024,21.7,21.7,0,0,1,7.58,1.4,24.109,24.109,0,0,1,7.134,4.175l.813.685,4.776,71.43ZM547.812,3.86l-1.458-.417C541.4,2.028,536.675-1,532.71-3.776l-.55-.385L527.493-14.2l-.008-.532-1.016-63.185L515.753-83.38,518.668-93l14.282-11.187,1.371.6a39.578,39.578,0,0,1,10.328,6.766,53.266,53.266,0,0,1,6.465,6.962l12.667-11.922.768-.118c.692-.106,1.428-.245,2.207-.391a39.73,39.73,0,0,1,7.533-.886h1l11.221,10.734-.182,1.272c-.312,2.187-1.1,6.256-2.891,8.937l-.215.323-.3.242a51.407,51.407,0,0,1-6.452,4.583,22.47,22.47,0,0,1-7.6,2.795l-.2.034h-.207c-3.028,0-5.905-2.172-8.688-4.272a29.288,29.288,0,0,0-3.558-2.445,3.2,3.2,0,0,0-1.686,1.918v58.286a21.749,21.749,0,0,0,5.242,3.641l.218.055c.218-.016.459-.049.709-.082a9.8,9.8,0,0,1,1.314-.115h5.812ZM536.126-7.49a47.547,47.547,0,0,0,10.184,5.665L556.89-12.992a24.644,24.644,0,0,1-6.716-5.1l-.642-.713V-79.823l.105-.351a9.363,9.363,0,0,1,1.2-2.558l-.433.408-1.662-2.341a50.286,50.286,0,0,0-7.426-8.422,35.461,35.461,0,0,0-7.678-5.291L523-90.039l-1.244,4.107L531.42-81l.024,1.5,1.031,64.156Zm20.48-78.7.626.221a22.544,22.544,0,0,1,5.557,3.458c1.752,1.323,4.126,3.114,5.509,3.254a17.431,17.431,0,0,0,5.68-2.155,45.011,45.011,0,0,0,5.489-3.888,17.685,17.685,0,0,0,1.71-5.319l-7.868-7.526a40.18,40.18,0,0,0-5.632.778c-.546.1-1.073.2-1.591.291L553.4-85.139a7.881,7.881,0,0,1,2.555-.937Zm70.514,88.9a54.445,54.445,0,0,1-12.046-1.323l-.2-.049-.186-.08a63.776,63.776,0,0,1-12.516-7.07,52.126,52.126,0,0,1-9.762-9.283,52.171,52.171,0,0,1-6.979-11.452A63.808,63.808,0,0,1,581.2-40.07l-.049-.243v-.248a71.953,71.953,0,0,1,3.265-22.265,69.316,69.316,0,0,1,10.535-20.2l.169-.229.216-.185a97.34,97.34,0,0,1,25.084-15.479c-13.277-10.783-25.429-18.877-37.055-24.69l-2.479-1.24,1.488-2.339a83.384,83.384,0,0,1,15.874-18.652l1.323-1.134,1.522.848a235.118,235.118,0,0,1,33.481,22.627A227.442,227.442,0,0,1,663.3-95.686c10.95,11.811,17.487,28.916,17.487,45.766a62.441,62.441,0,0,1-.441,8.882l-.026.183-.053.177a59.641,59.641,0,0,1-7.845,16.312,67.759,67.759,0,0,1-12.384,13.795C649.913-2.008,638.222,2.708,627.12,2.708ZM616.479-3.418A49.834,49.834,0,0,0,627.12-2.292c7.977,0,16.356-2.777,24.128-7.919l-.238.017c-1.155.082-2.352.24-3.509.393a39.258,39.258,0,0,1-4.989.446,33.461,33.461,0,0,1-12.332-2.385,40.622,40.622,0,0,1-10.669-6.34A52.532,52.532,0,0,1,610.8-27.2a61.623,61.623,0,0,1-6.532-10.84l-.239-.506v-.56c0-.941-.082-2.244-.169-3.623-.116-1.831-.247-3.906-.247-5.945a85.254,85.254,0,0,1,1.127-14.222,55.642,55.642,0,0,1,4.091-13.779,36.487,36.487,0,0,1,8.214-11.648,32.8,32.8,0,0,1,13.328-7.47l1.182-.345.994.727a82.934,82.934,0,0,1,9.947,8.556,83.012,83.012,0,0,1,8.338,9.863,95.472,95.472,0,0,1,12.126,23.307l.055.152.035.158a63.984,63.984,0,0,1,1.516,12.814A46.084,46.084,0,0,1,661.752-24.5,33.889,33.889,0,0,1,653.7-11.927q1.577-1.166,3.111-2.462A62.765,62.765,0,0,0,668.28-27.166a54.737,54.737,0,0,0,7.142-14.762,58.98,58.98,0,0,0,.365-7.992,65.2,65.2,0,0,0-4.208-22.727A63.532,63.532,0,0,0,666.5-83.14a56.534,56.534,0,0,0-6.889-9.175l-.059-.066a222.408,222.408,0,0,0-28.127-27.227,229.943,229.943,0,0,0-31.229-21.279A77.913,77.913,0,0,0,588.1-126.8c12.153,6.367,24.859,15.124,38.749,26.7l3.276,2.73-3.982,1.525A93.592,93.592,0,0,0,598.8-79.823,64.259,64.259,0,0,0,589.175-61.3a66.877,66.877,0,0,0-3.026,20.491C589.792-22.923,599.716-10.689,616.479-3.418Zm-7.458-36.266a56.523,56.523,0,0,0,5.768,9.474,47.532,47.532,0,0,0,7.877,8.251,35.625,35.625,0,0,0,9.351,5.568,28.479,28.479,0,0,0,10.5,2.035,35.237,35.237,0,0,0,4.336-.4c.956-.126,1.938-.255,2.94-.35a28.752,28.752,0,0,0,7.284-11.147,41.038,41.038,0,0,0,2.492-14.3A59.465,59.465,0,0,0,658.2-52.133a90.4,90.4,0,0,0-11.427-21.936,77.982,77.982,0,0,0-7.834-9.267,77.78,77.78,0,0,0-8.339-7.29,27.586,27.586,0,0,0-10.15,5.963,31.525,31.525,0,0,0-7.074,10.068,50.675,50.675,0,0,0-3.709,12.539,80.269,80.269,0,0,0-1.057,13.384c0,1.881.126,3.873.237,5.63C608.929-41.778,609-40.657,609.021-39.684ZM481.52,2.708a59.007,59.007,0,0,1-18.2-2.864,54.49,54.49,0,0,1-16.177-8.354,47.051,47.051,0,0,1-12.179-13.523,45.52,45.52,0,0,1-6.06-18.246l-.016-.14v-.07c-.026-.117-.105-.345-.15-.473a3.623,3.623,0,0,1-.266-1.262,74.334,74.334,0,0,1,4.291-26.3,59.436,59.436,0,0,1,5.853-11.624A66,66,0,0,1,447.3-90.792l.083-.083.091-.075a53.542,53.542,0,0,1,22.711-10.92l.255-.054h3.172a49.011,49.011,0,0,1,13.733,1.94A45.115,45.115,0,0,1,499.7-94.278a41.517,41.517,0,0,1,16.646,21.952l.123.377v6.221a82.783,82.783,0,0,1-1.08,14.8l-.378,2.081-62.142-.823a38.523,38.523,0,0,0,1.22,5.868,36.111,36.111,0,0,0,3.17,7.531,43.913,43.913,0,0,0,10.814,12.491l8.718,3.875c.629.079,1.268.162,1.89.243a104.5,104.5,0,0,0,13.656,1.148c6.1,0,10.969-1.128,14.466-3.353L513.3-26l-2.826,7.159a46.438,46.438,0,0,1-6.488,11.485,43.729,43.729,0,0,1-9.816,9.211l-.573.393-.694.041C489.831,2.468,485.315,2.708,481.52,2.708ZM433.888-40.737a40.538,40.538,0,0,0,5.381,16.153,42.076,42.076,0,0,0,10.9,12.087,49.509,49.509,0,0,0,14.7,7.584A54.014,54.014,0,0,0,481.52-2.292c3.386,0,7.418-.2,10.381-.371a38.651,38.651,0,0,0,8.134-7.764,39.246,39.246,0,0,0,2.958-4.394q-.937.262-1.923.471a42.479,42.479,0,0,1-8.733.834,109.993,109.993,0,0,1-14.3-1.189c-.772-.1-1.5-.194-2.235-.286l-.367-.046-10-4.444-.256-.207a56.053,56.053,0,0,1-6.916-6.6,44.781,44.781,0,0,1-5.366-7.54,41.108,41.108,0,0,1-3.61-8.576,44.628,44.628,0,0,1-1.672-9.648l-.174-2.7L510.8-53.9a87.068,87.068,0,0,0,.668-11.824v-5.421a36.547,36.547,0,0,0-14.535-18.965,40.121,40.121,0,0,0-10.984-5.071,44.016,44.016,0,0,0-12.332-1.739h-2.648a48.476,48.476,0,0,0-20.212,9.751,56.343,56.343,0,0,0-13.3,20.393,69.179,69.179,0,0,0-3.976,24.21A6.41,6.41,0,0,1,433.888-40.737ZM337.134,2.708h-20.39l-.427-.161a177.118,177.118,0,0,1-33.766-17.3l-2.576-1.684,2.176-2.176a53.367,53.367,0,0,1,8.894-7.174,45.9,45.9,0,0,1,10.617-5.084l1.125-.364,17.49,11.228a52.529,52.529,0,0,1,9.55,3.676,74.425,74.425,0,0,0,13.58,1.354h1.706l6.268-7.88a21.782,21.782,0,0,0,1.174-6.676,33.261,33.261,0,0,0-3.276-13.026,19.15,19.15,0,0,0-6.2-3.811,18.689,18.689,0,0,0-6.534-1.047,15.827,15.827,0,0,0-2.2.255c-.787.125-1.649.261-2.554.328a27.122,27.122,0,0,1-10.866,6.145,45.448,45.448,0,0,1-13.292,1.8,34.758,34.758,0,0,1-3.914-.309,36,36,0,0,0-3.99-.315H298.8l-.895-.767c-4.434-3.8-8.622-7.389-12.285-12.56l-.4-.564-.053-.689c-.078-1.01-.258-2.091-.45-3.235a32.9,32.9,0,0,1-.6-5.485c0-4.014.957-8.788,1.8-13l.26-1.3,20.032-21.121.545-.2a64.783,64.783,0,0,1,17.954-4.309l.089-.006h3a68.054,68.054,0,0,1,20.367,3.465l.308.106L368.22-85.947,366.262-83.8a58.508,58.508,0,0,1-16.744,12.2l-1.144.572L325.581-82.97a40.959,40.959,0,0,0-11.293-2.1,9.151,9.151,0,0,0-4.123.783,7.093,7.093,0,0,0-3.047,3.121l-.065.118-.077.111a11.19,11.19,0,0,0-1.376,3.722c-.114.468-.225.92-.352,1.355l4.026,14.764a8.344,8.344,0,0,0,3.042,2.045,11.029,11.029,0,0,0,4.051.8,19.339,19.339,0,0,0,4.906-.668c1.626-.817,3.269-1.682,4.86-2.519a114.9,114.9,0,0,1,12.643-6.01l.428-.162h.458a16.731,16.731,0,0,0,2.681-.323,15.379,15.379,0,0,1,2.519-.3,37.51,37.51,0,0,1,11.5,1.912,64.619,64.619,0,0,1,10.684,4.62l.4.211.3.336a46.088,46.088,0,0,1,8.385,14.119l.15.414v5.224a49.642,49.642,0,0,1-5.908,22.8l-.264.5-.451.336a218,218,0,0,1-31.991,20.2Zm-19.476-5h18.293A213.542,213.542,0,0,0,366.21-21.426a44.453,44.453,0,0,0,5.066-19.966v-4.335a41.072,41.072,0,0,0-6.98-11.766c-7.457-3.911-13.642-5.735-19.432-5.735A13.2,13.2,0,0,0,343.2-63a23.537,23.537,0,0,1-3.043.385,113.225,113.225,0,0,0-11.691,5.607c-1.679.884-3.415,1.8-5.154,2.668l-.193.1-.207.062a24.351,24.351,0,0,1-6.542.937,16.143,16.143,0,0,1-5.933-1.172,13.068,13.068,0,0,1-5.393-3.944l-.313-.4-4.714-17.284.284-.756a16.012,16.012,0,0,0,.444-1.6,15.681,15.681,0,0,1,2.057-5.286,12.023,12.023,0,0,1,5.158-5.085,14.088,14.088,0,0,1,6.329-1.3,46.541,46.541,0,0,1,13.063,2.416l.191.064,20.871,10.933a55.333,55.333,0,0,0,12.105-8.437l-14.277-9.576a62.74,62.74,0,0,0-18.433-3.088h-2.821a59.248,59.248,0,0,0-15.943,3.8L290.806-74.723a67.046,67.046,0,0,0-1.682,11.907,28.7,28.7,0,0,0,.529,4.66c.162.968.328,1.963.436,2.957,3.1,4.218,6.736,7.4,10.587,10.7,1.227.051,2.437.191,3.615.327a31.4,31.4,0,0,0,3.34.276,40.5,40.5,0,0,0,11.824-1.58,21.826,21.826,0,0,0,9.466-5.561l.737-.764h1.061a18.865,18.865,0,0,0,2.842-.307,19.413,19.413,0,0,1,2.982-.317,23.842,23.842,0,0,1,8.234,1.345A24.34,24.34,0,0,1,353-45.939l.34.312.206.413a38.238,38.238,0,0,1,4.008,15.678,26.731,26.731,0,0,1-1.606,8.758l-.139.383L347.526-9.98h-4.118a79.761,79.761,0,0,1-14.82-1.5l-.307-.058L328-11.671a47.712,47.712,0,0,0-9.291-3.576l-.417-.1-.361-.232L302.1-25.74a44.811,44.811,0,0,0-14.127,8.519A171.206,171.206,0,0,0,317.658-2.292Zm90.655,4.116-1.369-.177a32.017,32.017,0,0,1-9.126-2.512,40.443,40.443,0,0,1-7.64-4.613l-.262-.194-.2-.255a40.652,40.652,0,0,1-4.652-6.892l-.264-.528v-68.6H371.373l3.012-15.662,1.9-.146a22.556,22.556,0,0,0,4.69-1c.395-.114.8-.23,1.213-.344l13.663-20.99,6.729-19.067H409.5l4.368,39.728h14.2v17.48H413.3v61.7l8.448,5.793Zm-14.9-11.13a35.06,35.06,0,0,0,6.45,3.878,25.981,25.981,0,0,0,6.373,1.915l8.177-9.907L408.3-17.611V-86.948h14.768v-7.48H409.392l-4.107-37.358-4.914,13.924-.163.25L385.319-94.741l-.953.238c-.68.17-1.353.364-2,.551a35.906,35.906,0,0,1-3.768.935l-1.167,6.068H389.8v72.4A38.05,38.05,0,0,0,393.412-9.306Zm339.58-1.922a39.973,39.973,0,0,1-11.648-2.43l-.221-.078-.2-.118a35.912,35.912,0,0,1-8.991-7.421,40.647,40.647,0,0,1-6.215-9.622,54.2,54.2,0,0,1-4.758-22.767,76.173,76.173,0,0,1,2.307-17.675,86.24,86.24,0,0,1,5.2-15.2l.485-1.051,1.116-.31a47.344,47.344,0,0,1,12.317-1.547,53.271,53.271,0,0,1,8.351.456l.137.025.134.04a57.793,57.793,0,0,1,18.45,8.706l.994.736.868,60.076-.956.764c-.625.5-1.228,1.061-1.867,1.654a23.624,23.624,0,0,1-4.957,3.795l-.258.139-.283.075A40.681,40.681,0,0,1,732.992-11.228ZM723.23-18.3a34.794,34.794,0,0,0,9.762,2.068,35.581,35.581,0,0,0,8.419-1.5,20.037,20.037,0,0,0,3.68-2.919c.387-.36.782-.726,1.193-1.09l-.8-55.176a44.134,44.134,0,0,0-7.153-4.034,69.26,69.26,0,0,0-8.624-3.144,52.635,52.635,0,0,0-7.325-.353,43.59,43.59,0,0,0-9.86,1.076,82.768,82.768,0,0,0-4.4,13.215,71.123,71.123,0,0,0-2.165,16.489,49.184,49.184,0,0,0,4.29,20.653,35.656,35.656,0,0,0,5.446,8.441A30.933,30.933,0,0,0,723.23-18.3Zm-226.9-38.21-48.722-1.166v-2.441c0-5.4.222-11.091,1.833-16.173a23.469,23.469,0,0,1,3.777-7.378,22.506,22.506,0,0,1,6.9-5.878l.569-.319h3.564c7.131,0,13.743,2.228,19.38,4.316l.532.2.4.408A40.53,40.53,0,0,1,492.571-73a44.12,44.12,0,0,1,3.5,13.7Zm-43.7-6.047,38.106.912a38.565,38.565,0,0,0-2.745-9.347,35.57,35.57,0,0,0-6.635-10.067c-5.109-1.877-11.015-3.8-17.1-3.8h-2.24a17.065,17.065,0,0,0-4.834,4.249,18.56,18.56,0,0,0-2.97,5.836A43.864,43.864,0,0,0,452.632-62.552ZM101.146-68.22H24.54v-33.274l.128-.385,6.055-18.165,9.915-8.026.784-.056c1.091-.078,2.277-.218,3.533-.366a52.127,52.127,0,0,1,5.8-.473h3.94l.194.031a98.908,98.908,0,0,1,23.9,7.247l.109.047,17.9,9.843Zm-71.606-5H95.621l-3.546-35.463L76.69-117.145A94.128,94.128,0,0,0,54.3-123.964H50.752a48.848,48.848,0,0,0-5.213.438c-.985.116-2,.235-2.967.323L35-117.077,29.54-100.682Z" transform="translate(497 588)"/>
  </g>
</svg>
