<svg xmlns="http://www.w3.org/2000/svg" width="678.483" height="149.877" viewBox="0 0 678.483 149.877">
  <g id="Group_3900" data-name="Group 3900" transform="translate(-595.106 -3419.674)">
    <path id="Path_23817" data-name="Path 23817" d="M46.683,0V-57.447H67.509V-78.039H2.106v20.592H23.049V0ZM151.164,0V-78.039H127.53v27.612H99.567V-78.039H75.933V0H99.567V-29.835H127.53V0Zm91.494,0L213.876-78.039H184.158L155.376,0H181l3.042-10.062h29.952L217.035,0ZM207.909-29.718H190.125l8.892-27.495ZM321.984,0V-78.039H298.35v39.312L271.206-78.039H246.87V0H270.5V-41.886L299.286,0Zm86.931,0L378.144-41.769l29.484-36.27h-28.9l-20.475,29.25v-29.25H334.62V0h23.634V-21.645l4.329-5.85L380.133,0Zm78.507,0V-31l29.016-47.034H489.879L475.605-51.714,461.1-78.039H434.538L463.788-31V0Zm24.336-38.961c0,23.985,18.6,40.365,42.705,40.365s42.705-16.38,42.705-40.365-18.6-40.365-42.705-40.365S511.758-62.946,511.758-38.961Zm61.425,0c0,10.881-7.371,19.539-18.72,19.539s-18.72-8.658-18.72-19.539S543.114-58.5,554.463-58.5,573.183-49.842,573.183-38.961Zm32.409,6.9c0,19.3,11.232,33.462,37.557,33.462s37.44-14.157,37.44-33.579V-78.039H656.6v45.162c0,7.488-3.861,13.455-13.455,13.455-9.711,0-13.572-5.967-13.572-13.455V-78.039H605.592Z" transform="translate(593 3499)" fill="#fff"/>
    <path id="Path_23818" data-name="Path 23818" d="M75.231-4.329,70.317-7.02,68.679-67.509a89.449,89.449,0,0,0-7.02-5.967c-8.541-4.212-19.071-8.541-29.016-8.541-1.521,0-3.159.351-4.446.351A117.372,117.372,0,0,0,5.616-56.16L3.51-9.009.117,2.691l8.19-6.084,6.435-29.6h40.6L57.564-.936l7.137,4.8h2.34ZM55.341-39.78H15.21V-56.862l3.276-9.828L23.4-70.668c1.638-.117,3.627-.468,5.148-.468h2.106a54.4,54.4,0,0,1,13.1,3.978l9.36,5.148ZM158.067-6.552l-3.393-2.106L152.568-47.5c-3.51-2.574-7.6-4.914-11.583-7.488a17.581,17.581,0,0,0-4.446-.351h-1.17l-11.583,9.009a163.393,163.393,0,0,0-14.742-10.062,6.422,6.422,0,0,0-2.808.468L93.6-47.619a28.621,28.621,0,0,0-9.36-9.36l-6.552,6.552-.351,2.808,4.095.585L80.964-.117l11,1.053.936-44.46c2.808-2.106,6.552-3.744,9.594-3.744a11.728,11.728,0,0,1,8.073,3.744L111.5-.468,123.084.585l.7-43.29a14.219,14.219,0,0,1,8.658-3.627,11.641,11.641,0,0,1,7.371,2.808l2.691,40.248,6.084,4.329H150.7Zm52.182-16.731v-2.691a24.414,24.414,0,0,0-4.446-7.488c-3.744-1.989-7.722-3.51-11.817-3.51-.7,0-1.872.351-2.925.351a108.769,108.769,0,0,0-9.828,4.8,12.214,12.214,0,0,1-3.276.468,6.87,6.87,0,0,1-5.265-2.34l-2.457-9.009c.351-.936.468-2.457,1.287-3.627a5.4,5.4,0,0,1,5.265-2.925,24.689,24.689,0,0,1,6.9,1.287l12.285,6.435a31.273,31.273,0,0,0,9.009-6.552l-9.594-6.435a36.788,36.788,0,0,0-11-1.872h-1.638a35.656,35.656,0,0,0-9.711,2.34L162.279-42.705a41.437,41.437,0,0,0-1.053,7.371c0,1.638.468,3.276.585,4.8a37.967,37.967,0,0,0,6.786,6.9c1.521,0,3.159.351,4.446.351,4.8,0,9.711-1.053,12.987-4.446,1.17,0,2.34-.351,3.276-.351a11.485,11.485,0,0,1,8.307,3.276,20.23,20.23,0,0,1,2.106,8.19,13.64,13.64,0,0,1-.819,4.446L194.8-7.02h-1.638a43.865,43.865,0,0,1-8.073-.819,28.163,28.163,0,0,0-5.5-2.106l-9.477-6.084a26.764,26.764,0,0,0-10.413,6.552A97.841,97.841,0,0,0,178.425.117h10.881A122.847,122.847,0,0,0,207.09-11.115,26.54,26.54,0,0,0,210.249-23.283ZM239.382-47.5v-7.02h-7.839l-2.457-22.347h-1.638l-3.51,9.945-8.073,12.4a23.184,23.184,0,0,1-4.1.936L210.6-47.5h7.254V-7.839a22.044,22.044,0,0,0,2.457,3.627,17.5,17.5,0,0,0,8.775,3.744l6.084-7.371-4.095-2.808V-47.5Zm49.725,10.53v-3.276c-3.276-10.062-12.636-15.678-22.7-15.678h-1.638a28.748,28.748,0,0,0-12.168,5.85c-7.371,7.371-10.179,15.912-10.179,26.325a5.308,5.308,0,0,1,.234.936C244.3-8.307,257.517.117,270.855.117c1.989,0,4.329-.117,6.318-.234a23.433,23.433,0,0,0,8.658-11,16.675,16.675,0,0,1-8.892,2.106,71.478,71.478,0,0,1-9.126-.819l-5.265-2.34c-5.5-4.446-8.892-9.945-9.36-17.2l35.334.468A46.041,46.041,0,0,0,289.107-36.972Zm-11.466,3.744-24.453-.585c0-5.967.468-12.051,6.318-15.327h1.638a30.125,30.125,0,0,1,10.413,2.34A22.268,22.268,0,0,1,277.641-33.228ZM328.419-51.48l-5.382-5.148a31.945,31.945,0,0,0-5.265.7l-7.956,7.488a24.649,24.649,0,0,0-9.828-8.541l-7.02,5.5-1.17,3.861,5.733,2.925.585,36.387,2.34,5.031A25.685,25.685,0,0,0,307.71.585l8.424-8.892c-.351,0-.819.117-1.287.117l-.468-.117a13.1,13.1,0,0,1-3.861-2.808V-44.694a3.148,3.148,0,0,1,2.457-2.34c1.989.7,4.68,3.861,6.786,3.861,2.808-.468,4.914-1.989,7.254-3.861A11.707,11.707,0,0,0,328.419-51.48Zm53.118,23.4a37.276,37.276,0,0,0-9.477-24.8,128.165,128.165,0,0,0-34.632-28.08,45.809,45.809,0,0,0-8.658,10.179A121.773,121.773,0,0,1,351.7-55.224a54.16,54.16,0,0,0-15.912,9.36A36.769,36.769,0,0,0,328.3-22.815c2.106,10.53,7.956,17.9,18.018,22.23a29.313,29.313,0,0,0,6.435.7c12.519,0,24.921-11.232,28.548-23.4A33.751,33.751,0,0,0,381.537-28.08Zm-9.126,5.265c0,5.733-1.872,11.817-6.318,15.678-1.638.117-3.276.468-4.68.468-9.009,0-16.38-7.137-20.241-15.327,0-1.287-.234-3.393-.234-5.382,0-10.179,2.808-21.879,14.04-25.155,7.839,5.733,13.221,13.455,16.614,22.815A34.746,34.746,0,0,1,372.411-22.815ZM437.7-7.02l-4.329-1.638V-50.076c-4.446-5.148-13.572-6.552-20.592-6.552h-2.691a37.118,37.118,0,0,0-9.594,3.744l-7.722,5.85a54.32,54.32,0,0,0-6.084,9.477,114.937,114.937,0,0,0-2.223,16.731c1.053,8.541,5.265,14.625,12.168,19.071,1.521.468,2.925.819,4.329,1.287h9.828l9.477-6.084a24.281,24.281,0,0,0,8.658,7.605A23.206,23.206,0,0,0,437.7-7.02Zm-16.5-4.563a23.272,23.272,0,0,1-3.627,2.925,21.716,21.716,0,0,1-5.265.936,21.032,21.032,0,0,1-6.084-1.287c-7.254-4.212-10.53-12.636-10.53-21.177a46.328,46.328,0,0,1,4.1-17.9,25.143,25.143,0,0,1,6.552-.819,29.068,29.068,0,0,1,4.446.234,30.886,30.886,0,0,1,9.945,4.68Zm99.918,5.031-3.393-2.106L515.619-47.5c-3.51-2.574-7.605-4.914-11.583-7.488a17.581,17.581,0,0,0-4.446-.351h-1.17l-11.583,9.009A163.39,163.39,0,0,0,472.1-56.394a6.422,6.422,0,0,0-2.808.468l-12.636,8.307a28.621,28.621,0,0,0-9.36-9.36l-6.552,6.552-.351,2.808,4.1.585L444.015-.117l11,1.053.936-44.46c2.808-2.106,6.552-3.744,9.594-3.744a11.728,11.728,0,0,1,8.073,3.744l.936,43.056L486.135.585l.7-43.29a14.219,14.219,0,0,1,8.658-3.627,11.641,11.641,0,0,1,7.371,2.808l2.691,40.248,6.084,4.329h2.106Z" transform="translate(675 3563)" fill="#fff"/>
    <path id="Amsterdam_-_Outline" data-name="Amsterdam - Outline" d="M-2.564,6.551,2.019-9.255,4.136-56.64l.227-.345a123.193,123.193,0,0,1,10.5-13.755A116.752,116.752,0,0,1,27.232-82.815l.418-.351H28.2a17.611,17.611,0,0,0,1.868-.155,22.4,22.4,0,0,1,2.578-.2c10.8,0,22.11,4.963,29.679,8.7l.13.064.115.088a90.282,90.282,0,0,1,7.141,6.07l.453.428,1.632,60.25,5.914,3.238L67.662,5.361H64.244L56.118-.1,53.941-31.494H15.951l-6.3,28.97Zm67.723-4.19H66.42l6.336-6.336L68.841-6.118,67.2-66.843c-2-1.859-4.224-3.74-6.331-5.352-7.3-3.593-18.112-8.322-28.222-8.322a20.178,20.178,0,0,0-2.234.177c-.57.066-1.116.129-1.644.158A113.8,113.8,0,0,0,17.109-68.754,120.065,120.065,0,0,0,7.1-55.679L5-8.763,2.8-1.169,6.961-4.262l6.572-30.232H56.741L59.01-1.772Zm363.753.352-.641-.31a24.537,24.537,0,0,1-8.348-6.953l-8.694,5.582H400.716l-.231-.077c-.787-.262-1.578-.488-2.416-.726-.605-.172-1.231-.351-1.88-.55l-.2-.061-.174-.112c-7.573-4.877-11.774-11.468-12.845-20.149l-.017-.138.009-.139a116.87,116.87,0,0,1,2.253-16.95l.038-.177.079-.163a56.719,56.719,0,0,1,6.246-9.739l.123-.16,7.94-6.015.062-.038a38.477,38.477,0,0,1,9.968-3.909l.2-.058h2.9a46.472,46.472,0,0,1,11.649,1.4c4.468,1.2,7.859,3.106,10.078,5.675l.365.422v40.94l5.137,1.944-1.067,1.573a29.955,29.955,0,0,1-4.113,4.9,20.049,20.049,0,0,1-5.269,3.694ZM420.627-8.568l.837,1.116a23.4,23.4,0,0,0,7.465,6.825,21.022,21.022,0,0,0,6.4-5.685l-3.462-1.31V-49.5a17.429,17.429,0,0,0-8.219-4.337,43.45,43.45,0,0,0-10.873-1.294H410.3a35.138,35.138,0,0,0-8.957,3.484l-7.5,5.684a51.735,51.735,0,0,0-5.721,8.893,113.945,113.945,0,0,0-2.147,16.194,24.007,24.007,0,0,0,3.641,10.3,25.49,25.49,0,0,0,7.66,7.445c.551.167,1.094.322,1.621.472.79.225,1.541.439,2.309.688h9.148ZM456.479,2.583,442.5,1.245l.469-46.98-4.253-.608.6-4.781,7.752-7.752,1.008.618A30.3,30.3,0,0,1,457.09-49.7l11.476-7.544.112-.05a7.882,7.882,0,0,1,3.417-.6h.4l.348.2a150.276,150.276,0,0,1,13.624,9.232l.34.249,11.1-8.63h1.685a18.435,18.435,0,0,1,4.877.414l.2.061.179.116c1.338.866,2.711,1.718,4.038,2.542,2.7,1.677,5.251,3.261,7.617,5l.572.42,2.1,38.772,4.31,2.675-9.109,9.4h-3.22l-7.054-5.019-2.694-40.3a10.072,10.072,0,0,0-5.919-2.069,12.434,12.434,0,0,0-7.169,2.846l-.717,44.211L473.081.9l-.952-43.792a10.194,10.194,0,0,0-6.586-2.88,15.688,15.688,0,0,0-8.11,3.023ZM512.12-.447h.992l5.633-5.812L516.269-7.8l-2.109-38.91c-2.118-1.512-4.424-2.944-6.854-4.452-1.275-.792-2.591-1.609-3.889-2.445a19.206,19.206,0,0,0-3.828-.237h-.655L488.51-45.733a14.225,14.225,0,0,1,6.985-2.1,13.214,13.214,0,0,1,8.337,3.161l.488.411,2.686,40.175ZM445.529-1.479l8.019.768.917-43.575.584-.438c.349-.262.726-.526,1.125-.788l-.806-1.33a27.042,27.042,0,0,0-7.872-8.221l-5.332,5.332-.1.835,3.937.562Zm30.494-.362,8.639.785.687-42.349.513-.439q.428-.367.874-.7l-.784-.574-1.255-.92a149.263,149.263,0,0,0-13-8.851A4.469,4.469,0,0,0,470-54.6l-13.667,8.985c2.566-1.65,6.019-3.154,9.211-3.154a13.25,13.25,0,0,1,9.159,4.21l.4.421ZM93.428,2.583,79.45,1.245l.469-46.98-4.253-.608.6-4.781,7.752-7.752,1.008.618A30.3,30.3,0,0,1,94.039-49.7l11.476-7.544.112-.05a7.882,7.882,0,0,1,3.417-.6h.4l.348.2a150.275,150.275,0,0,1,13.624,9.232l.34.249,11.1-8.63h1.685a18.435,18.435,0,0,1,4.877.414l.2.061.179.116c1.338.866,2.711,1.718,4.038,2.542,2.7,1.677,5.251,3.261,7.617,5l.572.42,2.1,38.772,4.31,2.675-9.109,9.4h-3.22l-7.054-5.019-2.694-40.3a10.072,10.072,0,0,0-5.919-2.069,12.434,12.434,0,0,0-7.169,2.846l-.717,44.211L110.03.9l-.952-43.792a10.194,10.194,0,0,0-6.586-2.88,15.688,15.688,0,0,0-8.11,3.023Zm55.642-3.03h.992l5.633-5.812L153.219-7.8l-2.11-38.91c-2.118-1.512-4.424-2.944-6.854-4.452-1.275-.792-2.591-1.609-3.889-2.445a19.206,19.206,0,0,0-3.828-.237h-.655l-10.425,8.108a14.225,14.225,0,0,1,6.985-2.1,13.214,13.214,0,0,1,8.337,3.161l.488.411,2.686,40.175ZM82.478-1.479,90.5-.711l.917-43.575L92-44.724c.349-.262.726-.526,1.125-.788l-.806-1.33a27.042,27.042,0,0,0-7.872-8.221L79.113-49.73l-.1.835,3.937.562Zm30.494-.362,8.639.785L122.3-43.4l.513-.439q.428-.367.874-.7l-.784-.574-1.255-.92a149.263,149.263,0,0,0-13-8.851,4.469,4.469,0,0,0-1.695.293L93.281-45.614c2.566-1.65,6.019-3.154,9.211-3.154a13.25,13.25,0,0,1,9.159,4.21l.4.421Zm195.2,4.118-.875-.25a27.081,27.081,0,0,1-7.7-4.074l-.33-.231-2.644-5.686-.005-.319-.57-35.485L290-46.853l1.671-5.515,8.1-6.346.823.363a24.908,24.908,0,0,1,9.419,7.669l7.071-6.655.461-.071c.387-.06.8-.137,1.238-.219a22.425,22.425,0,0,1,4.255-.5h.6l6.374,6.1-.109.763a13.373,13.373,0,0,1-1.641,5.066l-.129.194-.182.146c-2.367,1.894-4.756,3.638-7.944,4.169l-.122.02h-.124c-1.735,0-3.366-1.231-4.943-2.422a17.051,17.051,0,0,0-1.95-1.347,1.669,1.669,0,0,0-.85.991v32.73a12.179,12.179,0,0,0,2.888,2l.1.024c.116-.009.245-.027.379-.044a5.581,5.581,0,0,1,.752-.065h3.487Zm-6.528-6.553a26.8,26.8,0,0,0,5.629,3.14L313.1-7.284a13.862,13.862,0,0,1-3.7-2.828l-.385-.428V-44.914l.063-.211a5.521,5.521,0,0,1,.463-1.1l-.951-1.341a23.6,23.6,0,0,0-8.408-7.658l-5.918,4.636-.669,2.206,5.419,2.765.594,36.97ZM313.1-48.581l.376.133a12.741,12.741,0,0,1,3.151,1.959,9.344,9.344,0,0,0,3.038,1.811c2.336-.43,4.144-1.719,6.215-3.367a9.819,9.819,0,0,0,.933-2.9l-4.36-4.171a22.776,22.776,0,0,0-3.115.434c-.3.056-.585.11-.869.159l-6.66,6.268a4.651,4.651,0,0,1,.9-.258Zm39.656,50.2a30.726,30.726,0,0,1-6.8-.747l-.118-.029-.111-.048a35.967,35.967,0,0,1-7.058-3.987,29.412,29.412,0,0,1-5.509-5.239,29.443,29.443,0,0,1-3.938-6.462,35.984,35.984,0,0,1-2.39-7.625l-.029-.146v-.149a40.566,40.566,0,0,1,1.841-12.553,39.083,39.083,0,0,1,5.94-11.387l.1-.137.13-.111a54.809,54.809,0,0,1,13.991-8.661A114.872,114.872,0,0,0,328.1-69.443l-1.488-.744.893-1.4A47,47,0,0,1,336.452-82.1l.794-.68.913.509a129.421,129.421,0,0,1,35.02,28.39,38.779,38.779,0,0,1,9.859,25.8,35.215,35.215,0,0,1-.249,5.009l-.016.11-.032.106a33.641,33.641,0,0,1-4.425,9.2,38.213,38.213,0,0,1-6.983,7.779C365.62-1.044,359.022,1.617,352.755,1.617ZM346.8-2.012a27.956,27.956,0,0,0,5.956.629,24.667,24.667,0,0,0,13.215-4.24c-.575.049-1.165.127-1.738.2a22.153,22.153,0,0,1-2.819.252,18.914,18.914,0,0,1-6.971-1.348,22.937,22.937,0,0,1-6.026-3.581,32.2,32.2,0,0,1-8.6-11.259l-.143-.3V-22c0-.526-.046-1.258-.1-2.032-.065-1.031-.139-2.2-.139-3.35a38.048,38.048,0,0,1,2.944-15.79,18.812,18.812,0,0,1,12.176-10.805l.709-.207.6.436a46.542,46.542,0,0,1,10.306,10.381A53.8,53.8,0,0,1,373-30.229l.033.091.021.095a36.093,36.093,0,0,1,.855,7.228,22.855,22.855,0,0,1-5.292,15.287q.391-.311.776-.637a35.211,35.211,0,0,0,6.435-7.168,30.7,30.7,0,0,0,4-8.271,33.163,33.163,0,0,0,.2-4.476,36.58,36.58,0,0,0-2.361-12.751,33.835,33.835,0,0,0-6.715-11.033l-.036-.04a126.315,126.315,0,0,0-33.3-27.231,43.721,43.721,0,0,0-6.679,7.777,125.76,125.76,0,0,1,21.72,14.98l1.966,1.638-2.389.915A52.551,52.551,0,0,0,336.9-44.836a36.047,36.047,0,0,0-5.4,10.384,37.524,37.524,0,0,0-1.7,11.488C331.846-12.943,337.407-6.088,346.8-2.012Zm-4.132-20.333a29.077,29.077,0,0,0,7.641,9.92,19.948,19.948,0,0,0,5.235,3.118,15.928,15.928,0,0,0,5.869,1.138,19.756,19.756,0,0,0,2.427-.226c.529-.07,1.071-.141,1.626-.194a16.09,16.09,0,0,0,4.05-6.213,22.989,22.989,0,0,0,1.4-8.013,33.345,33.345,0,0,0-.763-6.483,50.757,50.757,0,0,0-6.413-12.31,43.542,43.542,0,0,0-9.039-9.263,15.414,15.414,0,0,0-5.628,3.318,17.64,17.64,0,0,0-3.958,5.634,35.118,35.118,0,0,0-2.672,14.542c0,1.055.071,2.174.133,3.161C342.615-23.514,342.655-22.889,342.668-22.345ZM270.855,1.617A33.286,33.286,0,0,1,260.591,0a30.747,30.747,0,0,1-9.127-4.714,26.56,26.56,0,0,1-6.875-7.634,25.7,25.7,0,0,1-3.421-10.3l-.009-.084v-.034c-.015-.063-.056-.18-.079-.246a2.144,2.144,0,0,1-.155-.741,41.9,41.9,0,0,1,2.42-14.827,34.559,34.559,0,0,1,8.2-12.559l.05-.05.054-.045a30.213,30.213,0,0,1,12.815-6.162l.153-.032h1.794a27.662,27.662,0,0,1,7.751,1.095,25.47,25.47,0,0,1,6.973,3.222,23.447,23.447,0,0,1,9.4,12.4l.074.226v3.514A46.662,46.662,0,0,1,290-28.631l-.227,1.248-34.927-.463a20.326,20.326,0,0,0,2.445,7.4,24.6,24.6,0,0,0,6.051,6.992l4.88,2.169,1.05.135a58.7,58.7,0,0,0,7.67.645,15.051,15.051,0,0,0,8.087-1.872l3.9-2.479-1.7,4.3a25,25,0,0,1-9.2,11.684l-.344.236-.416.024C275.534,1.482,272.992,1.617,270.855,1.617Zm-26.7-24.539a22.709,22.709,0,0,0,3.014,9.045A23.575,23.575,0,0,0,253.274-7.1a27.754,27.754,0,0,0,8.24,4.251,30.289,30.289,0,0,0,9.341,1.47c1.892,0,4.144-.112,5.807-.207A21.644,21.644,0,0,0,281.2-5.923a21.9,21.9,0,0,0,1.543-2.267,22.736,22.736,0,0,1-5.8.681,61.952,61.952,0,0,1-8.055-.67q-.636-.082-1.257-.161l-.22-.028-5.648-2.51L261.6-11c-6.2-5.014-9.444-10.99-9.914-18.269l-.1-1.618,35.656.472a49.263,49.263,0,0,0,.364-6.556v-3.034a20.465,20.465,0,0,0-8.134-10.605,22.476,22.476,0,0,0-6.153-2.841,24.664,24.664,0,0,0-6.911-.975h-1.48a27.174,27.174,0,0,0-11.316,5.461,31.6,31.6,0,0,0-7.459,11.435,38.8,38.8,0,0,0-2.231,13.57A3.651,3.651,0,0,1,244.156-22.922ZM189.66,1.617H178.151l-.256-.1a99.722,99.722,0,0,1-19.011-9.742l-1.545-1.01,1.306-1.306a28.355,28.355,0,0,1,11.012-6.919l.675-.218,9.863,6.332a29.63,29.63,0,0,1,5.363,2.065,41.76,41.76,0,0,0,7.61.758h.914l3.488-4.384a12.15,12.15,0,0,0,.65-3.71,18.6,18.6,0,0,0-1.826-7.27,9.926,9.926,0,0,0-7.087-2.7,8.844,8.844,0,0,0-1.223.142c-.435.069-.911.144-1.411.183a15.361,15.361,0,0,1-6.125,3.455,25.658,25.658,0,0,1-7.5,1.017,19.615,19.615,0,0,1-2.212-.174,20.178,20.178,0,0,0-2.234-.177h-.555l-.53-.454a38.553,38.553,0,0,1-6.926-7.082l-.24-.338-.032-.414c-.043-.564-.145-1.17-.252-1.811a18.576,18.576,0,0,1-.337-3.1,40.057,40.057,0,0,1,1.015-7.331l.152-.758,11.3-11.916.327-.121a36.53,36.53,0,0,1,10.125-2.43l.053,0h1.692a38.385,38.385,0,0,1,11.487,1.954l.184.064,11.2,7.514-1.175,1.287a33.006,33.006,0,0,1-9.446,6.882l-.687.343L183.1-46.584a22.933,22.933,0,0,0-6.316-1.173,3.892,3.892,0,0,0-3.951,2.148l-.039.071-.046.066a6.228,6.228,0,0,0-.76,2.062c-.062.255-.123.5-.191.741l2.252,8.257a5.571,5.571,0,0,0,3.905,1.555,10.786,10.786,0,0,0,2.726-.37c.911-.458,1.832-.943,2.724-1.412a64.695,64.695,0,0,1,7.122-3.385l.257-.1h.275a9.348,9.348,0,0,0,1.492-.18,8.707,8.707,0,0,1,1.433-.171c3.809,0,7.788,1.171,12.521,3.685l.238.127.179.2a26.023,26.023,0,0,1,4.735,7.972l.09.248v2.955a28.018,28.018,0,0,1-3.334,12.872l-.158.3-.271.2A122.713,122.713,0,0,1,189.977,1.459Zm-10.96-3h10.25a120.035,120.035,0,0,0,16.97-10.731,24.9,24.9,0,0,0,2.829-11.169V-25.7a23.015,23.015,0,0,0-3.892-6.561c-4.174-2.187-7.634-3.207-10.871-3.207a7.427,7.427,0,0,0-.922.127,13.411,13.411,0,0,1-1.708.217,63.774,63.774,0,0,0-6.552,3.144c-.945.5-1.922,1.012-2.9,1.5l-.116.058-.124.037a13.8,13.8,0,0,1-3.707.531,8.342,8.342,0,0,1-6.444-2.913l-.188-.239-2.664-9.77.17-.454a8.977,8.977,0,0,0,.246-.891,8.9,8.9,0,0,1,1.169-3,6.852,6.852,0,0,1,2.94-2.895,8.015,8.015,0,0,1,3.6-.739,26.276,26.276,0,0,1,7.377,1.364l.115.038,11.7,6.13a31.109,31.109,0,0,0,6.659-4.628l-7.922-5.314a35.19,35.19,0,0,0-10.327-1.728h-1.583a33.211,33.211,0,0,0-8.919,2.127L163.665-41.986a37.487,37.487,0,0,0-.939,6.652,16.076,16.076,0,0,0,.3,2.606c.09.538.182,1.09.243,1.644a36.03,36.03,0,0,0,5.9,5.964c.682.03,1.354.108,2.008.183a17.612,17.612,0,0,0,1.868.155c5.347,0,9.353-1.342,11.908-3.988l.442-.458h.637a10.546,10.546,0,0,0,1.584-.172,10.977,10.977,0,0,1,1.692-.179,13.5,13.5,0,0,1,4.664.762,13.782,13.782,0,0,1,4.657,2.908l.2.187.124.248a21.611,21.611,0,0,1,2.264,8.861,15.132,15.132,0,0,1-.909,4.959l-.084.23-4.7,5.906h-2.362a44.961,44.961,0,0,1-8.354-.845l-.184-.035-.17-.079a26.763,26.763,0,0,0-5.208-2.005L179-8.544l-9.083-5.831A25.091,25.091,0,0,0,162.14-9.7,96.186,96.186,0,0,0,178.7-1.383Zm51.016,2.509-.821-.106a18.91,18.91,0,0,1-9.475-4.025l-.157-.116-.122-.153a22.955,22.955,0,0,1-2.627-3.893l-.158-.317V-46h-7.57l1.729-8.992,1.142-.088a12.611,12.611,0,0,0,2.619-.559c.212-.061.427-.123.649-.184l7.66-11.768,3.8-10.777h4.043l2.457,22.347h7.995V-46h-8.307v34.565l4.8,3.288ZM221.36-5.3a15.969,15.969,0,0,0,7.11,3.224l4.5-5.451-3.394-2.328V-49h8.307v-4.02H230.2l-2.275-20.689-2.631,7.455L216.8-53.21l-.572.143c-.381.1-.759.2-1.124.309a20.738,20.738,0,0,1-2.066.517L212.416-49h6.938V-8.207A21.4,21.4,0,0,0,221.36-5.3Zm190.948-.92a22.579,22.579,0,0,1-6.583-1.373l-.132-.047-.121-.071a20.293,20.293,0,0,1-5.081-4.194,22.958,22.958,0,0,1-3.511-5.435,30.584,30.584,0,0,1-2.685-12.846,42.941,42.941,0,0,1,1.3-9.964,48.6,48.6,0,0,1,2.933-8.565l.291-.631.669-.186a26.725,26.725,0,0,1,6.953-.874,30.034,30.034,0,0,1,4.714.258l.082.015.08.024A32.594,32.594,0,0,1,421.625-45.2l.6.442.489,33.885-.573.459c-.349.279-.687.593-1.045.926a13.366,13.366,0,0,1-2.808,2.148l-.155.083-.17.045A22.957,22.957,0,0,1,412.308-6.222Zm-5.451-4.155a19.458,19.458,0,0,0,5.451,1.155,19.894,19.894,0,0,0,4.7-.838,11.252,11.252,0,0,0,2.042-1.623c.208-.193.42-.39.64-.586l-.447-30.945a30.479,30.479,0,0,0-8.8-4,29.616,29.616,0,0,0-4.1-.2,24.476,24.476,0,0,0-5.479.592,45.02,45.02,0,0,0-3.668,16.628,27.573,27.573,0,0,0,2.4,11.578A18.261,18.261,0,0,0,406.857-10.377ZM279.291-31.688l-27.6-.66v-1.465a30.617,30.617,0,0,1,1.035-9.126,12.559,12.559,0,0,1,6.05-7.51l.342-.191h2.029a31.572,31.572,0,0,1,10.934,2.433l.319.118.237.245a23.673,23.673,0,0,1,6.5,14.477ZM254.7-35.277l21.229.508a20.483,20.483,0,0,0-5.219-10.744,28.221,28.221,0,0,0-9.567-2.127H259.91a9.544,9.544,0,0,0-4.327,5.608A24.374,24.374,0,0,0,254.7-35.277ZM57-38.28H13.71V-57.105L17.2-67.58l5.621-4.55.47-.034c.612-.044,1.278-.122,1.983-.205a29.392,29.392,0,0,1,3.272-.267h2.224l.116.018a55.731,55.731,0,0,1,13.465,4.083l.065.028,10.113,5.562Zm-40.288-3H53.684l-1.98-19.8L43.1-65.809a52.841,52.841,0,0,0-12.563-3.827H28.548a27.413,27.413,0,0,0-2.921.246c-.545.064-1.1.13-1.643.179L19.77-65.8l-3.06,9.181Z" transform="translate(675 3563)"/>
  </g>
</svg>
